<?xml version="1.0" encoding="UTF-8"?>
<svg version="1.1" xmlns="http://www.w3.org/2000/svg" width="348" height="348">
<path d="M0 0 C114.84 0 229.68 0 348 0 C348 114.84 348 229.68 348 348 C233.16 348 118.32 348 0 348 C0 233.16 0 118.32 0 0 Z " fill="#FEFEFE" transform="translate(0,0)"/>
<path d="M0 0 C114.84 0 229.68 0 348 0 C348 114.84 348 229.68 348 348 C233.16 348 118.32 348 0 348 C0 233.16 0 118.32 0 0 Z M64 61 C63.20207031 61.73347656 62.40414062 62.46695313 61.58203125 63.22265625 C46.74580354 77.35127374 35.79928046 95.14489741 28 114 C27.58105469 115.00160156 27.16210938 116.00320312 26.73046875 117.03515625 C15.35646948 145.31552302 13.03499486 179.19992389 20 209 C20.24943359 210.10674072 20.24943359 210.10674072 20.50390625 211.23583984 C26.95840927 239.09180147 41.50309464 263.3542302 61 284 C61.73347656 284.79792969 62.46695313 285.59585937 63.22265625 286.41796875 C81.5717545 305.68605356 106.31208436 318.94810549 131.6875 326.375 C132.89635864 326.73307739 132.89635864 326.73307739 134.12963867 327.09838867 C146.97384893 330.64520195 160.00362441 331.38274141 173.25 331.3125 C173.96922638 331.31067719 174.68845276 331.30885437 175.42947388 331.30697632 C186.84437069 331.258444 197.86006289 330.62359205 209 328 C209.73637695 327.83371094 210.47275391 327.66742188 211.23144531 327.49609375 C239.08958963 321.04246958 263.35272306 306.49832864 284 287 C284.79792969 286.26652344 285.59585937 285.53304688 286.41796875 284.77734375 C298.39279424 273.37365461 307.58550004 259.71092358 315 245 C315.35046387 244.30712891 315.70092773 243.61425781 316.06201172 242.90039062 C320.41313524 234.12993787 323.75321525 225.24635269 326.375 215.8125 C326.73307739 214.53221924 326.73307739 214.53221924 327.09838867 213.22607422 C330.4160186 200.53868946 331.35428213 187.84187625 331.31567383 174.79370117 C331.31250647 172.56704955 331.33612443 170.34172422 331.36132812 168.11523438 C331.40556448 158.08841844 330.20982621 148.77137285 328 139 C327.80656006 138.12577393 327.61312012 137.25154785 327.41381836 136.35083008 C320.93189306 108.66475046 306.38106559 84.52310412 287 64 C286.26652344 63.20207031 285.53304688 62.40414062 284.77734375 61.58203125 C270.62835878 46.72441599 252.85516166 35.85170955 234 28 C233.07960937 27.59265625 232.15921875 27.1853125 231.2109375 26.765625 C213.06077091 19.16788085 193.94176951 16.77716872 174.4375 16.8125 C173.72113373 16.81376892 173.00476746 16.81503784 172.26669312 16.81634521 C130.68347873 16.95709037 94.13240913 32.54435341 64 61 Z " fill="#0EBF02" transform="translate(0,0)"/>
<path d="M0 0 C3.11669667 2.64303456 4.64518516 5.97693925 6.4375 9.5625 C13.28395553 22.78942194 21.85704292 34.95135944 31.234375 46.49609375 C33 49 33 49 33 52 C30.91524473 53.83242178 28.85069018 55.48069364 26.625 57.125 C21.36488676 61.12624864 16.33595463 65.24606373 11.4765625 69.734375 C9.41374929 71.62149118 7.32524644 73.46375714 5.21484375 75.296875 C1.03683829 78.94238957 -3.02436521 82.70078493 -7.0625 86.5 C-7.73087891 87.12519531 -8.39925781 87.75039062 -9.08789062 88.39453125 C-17.61682561 96.38457592 -17.61682561 96.38457592 -25.5 105 C-27.7455794 107.60647609 -30.04551512 110.08934521 -32.5 112.5 C-36.21182466 116.16266142 -39.61067228 120.03936514 -43 124 C-43.89571402 125.04307122 -44.7915573 126.08603145 -45.6875 127.12890625 C-47.73465012 129.51317413 -49.7782996 131.90039405 -51.8203125 134.2890625 C-53.88970698 136.7082138 -55.96777307 139.11938733 -58.0546875 141.5234375 C-64.48341444 148.94344206 -70.65082681 156.52014974 -76.66308594 164.28076172 C-77.95731916 165.9451135 -79.26141966 167.60106712 -80.5703125 169.25390625 C-92.60384103 184.45308097 -104.38449099 199.82930381 -115.43896484 215.7578125 C-117.17511675 218.25152834 -118.92458293 220.73557892 -120.67578125 223.21875 C-121.92976919 224.99994249 -123.18367675 226.78119157 -124.4375 228.5625 C-125.01709473 229.38371338 -125.59668945 230.20492676 -126.19384766 231.05102539 C-129.62670883 235.94347718 -132.8769414 240.90386887 -136 246 C-140.29745246 244.0795813 -142.74702753 241.07201805 -145.6875 237.5 C-146.75944223 236.22313964 -147.83236571 234.94710245 -148.90625 233.671875 C-149.4321875 233.04474609 -149.958125 232.41761719 -150.5 231.77148438 C-153.21050525 228.57040591 -156.03192518 225.47184231 -158.8515625 222.3671875 C-160.33379639 220.73403525 -161.80724912 219.09288501 -163.2734375 217.4453125 C-167.41801418 212.79150456 -171.6566034 208.30429329 -176.09765625 203.93359375 C-178.00331626 201.99662927 -179.78887726 199.99553441 -181.5625 197.9375 C-186.605086 192.09631441 -192.05621784 186.91298618 -197.8984375 181.8828125 C-200.18665111 179.83277726 -202.34260582 177.68704908 -204.5 175.5 C-208.5080298 171.45121057 -212.6752217 167.70396335 -217 164 C-218.16227848 162.98661696 -219.32365437 161.97219826 -220.484375 160.95703125 C-227.53124244 154.80301204 -234.61683078 148.75018591 -242 143 C-238.75735359 138.39966017 -235.28736434 134.16985934 -231.4375 130.0625 C-224.73960216 122.80728843 -218.90748416 114.90079564 -213 107 C-211.8699488 105.49337171 -210.73974602 103.9868571 -209.609375 102.48046875 C-208.73953182 101.32035112 -207.86972019 100.16020984 -207 99 C-198.21898299 103.24913873 -191.13669874 110.59003012 -184.0546875 117.19140625 C-181.79208777 119.2953331 -179.47601069 121.32554294 -177.13671875 123.34375 C-172.89544469 127.04001934 -168.90288514 130.94903793 -164.9375 134.9375 C-164.26912109 135.60201172 -163.60074219 136.26652344 -162.91210938 136.95117188 C-158.40285463 141.46919097 -154.16120199 146.16165045 -150 151 C-148.52322165 152.66878324 -147.04457339 154.33591759 -145.5625 156 C-144.54349609 157.1446875 -144.54349609 157.1446875 -143.50390625 158.3125 C-143.00761719 158.869375 -142.51132813 159.42625 -142 160 C-138.68633161 155.31266544 -135.40221811 150.61001018 -132.203125 145.84375 C-121.29093742 129.63269725 -109.6332815 113.9180239 -97 99 C-96.54173828 98.45827148 -96.08347656 97.91654297 -95.61132812 97.35839844 C-89.19853696 89.79063773 -82.66850792 82.34395532 -76 75 C-75.33097656 74.24976563 -74.66195312 73.49953125 -73.97265625 72.7265625 C-63.33720962 60.80377131 -52.34316421 49.25083022 -41.0625 37.9375 C-40.1869043 37.05731201 -39.31130859 36.17712402 -38.40917969 35.27026367 C-33.98269881 30.85433007 -29.50301788 26.57375824 -24.73803711 22.52368164 C-22.90960577 20.92075426 -21.20203021 19.23586728 -19.5 17.5 C-15.84389414 13.78586071 -11.94920433 10.39676365 -8 7 C-6.49888785 5.68877212 -4.99885314 4.37630954 -3.5 3.0625 C-2.33333333 2.04166667 -1.16666667 1.02083333 0 0 Z " fill="#0EBE00" transform="translate(273,66)"/>
<path d="M0 0 C0.33 0 0.66 0 1 0 C1 53.13 1 106.26 1 161 C-52.13 161 -105.26 161 -160 161 C-160 160.67 -160 160.34 -160 160 C-159.41323486 159.94054199 -158.82646973 159.88108398 -158.22192383 159.81982422 C-116.86482385 155.4596834 -79.85552748 138.85552748 -50.38671875 109.38671875 C-48.99719816 107.99719816 -47.59168362 106.62269499 -46.1484375 105.2890625 C-17.3267974 78.24496849 -4.64145721 38.00534377 0 0 Z " fill="#EFF0EF" transform="translate(347,187)"/>
<path d="M0 0 C0.33 0 0.66 0 1 0 C1.09498779 0.66829834 1.18997559 1.33659668 1.2878418 2.02514648 C3.26127132 15.67753103 5.40893627 28.96339706 10 42 C10.42925781 43.22203125 10.85851563 44.4440625 11.30078125 45.703125 C19.14506456 66.47390334 30.59644636 85.65233535 45.89453125 101.77734375 C47.57531856 103.55168137 49.11746551 105.33177505 50.625 107.25 C53.78553652 110.9095686 57.26700389 113.93578169 61 117 C61.91523437 117.7528125 62.83046875 118.505625 63.7734375 119.28125 C82.43593834 134.13603657 103.29960634 144.82017447 126 152 C126.96550781 152.30679688 127.93101563 152.61359375 128.92578125 152.9296875 C139.3362131 155.85244261 150.28918997 156.72989505 161 158 C161 158.33 161 158.66 161 159 C107.87 159 54.74 159 0 159 C0 106.53 0 54.06 0 0 Z " fill="#F7F8F7" transform="translate(0,189)"/>
<path d="M0 0 C54.12 0 108.24 0 164 0 C164 52.47 164 104.94 164 159 C163.67 159 163.34 159 163 159 C162.85304688 157.72769531 162.70609375 156.45539063 162.5546875 155.14453125 C158.05094765 118.80064142 143.48932846 83.97861649 118.10546875 57.22265625 C116.42468144 55.44831863 114.88253449 53.66822495 113.375 51.75 C110.21446348 48.0904314 106.73299611 45.06421831 103 42 C102.08476562 41.2471875 101.16953125 40.494375 100.2265625 39.71875 C86.38459347 28.70096105 71.25797129 19.94567037 55 13 C54.23276611 12.67 53.46553223 12.34 52.67504883 12 C46.46492521 9.41495695 40.20958294 7.50552074 33.6875 5.875 C32.65947266 5.61638184 31.63144531 5.35776367 30.57226562 5.09130859 C20.45585763 2.66765045 10.36525676 1.62623426 0 1 C0 0.67 0 0.34 0 0 Z " fill="#F8FAF8" transform="translate(184,0)"/>
<path d="M0 0 C52.47 0 104.94 0 159 0 C159 0.33 159 0.66 159 1 C158.35675781 1.10022461 157.71351563 1.20044922 157.05078125 1.30371094 C119.36130572 7.2313353 85.41474327 19.14819228 57.22265625 45.89453125 C55.44831863 47.57531856 53.66822495 49.11746551 51.75 50.625 C48.0904314 53.78553652 45.06421831 57.26700389 42 61 C41.2471875 61.91523437 40.494375 62.83046875 39.71875 63.7734375 C17.24934285 92.00240788 5.34861004 123.46867408 1 159 C0.67 159 0.34 159 0 159 C0 106.53 0 54.06 0 0 Z " fill="#F9FBF9" transform="translate(0,0)"/>
<path d="M0 0 C5.30257816 -0.67581879 8.87369814 -1.12789332 14 0 C17.71586393 3.32741048 20.17849888 7.09200342 22.83984375 11.27685547 C24.59545882 13.88441674 26.67721507 16.13715193 28.8125 18.4375 C31.14726432 20.9681886 33.42919718 23.48531642 35.5625 26.1875 C38.75024511 29.86566743 42.24232079 32.91552065 46 36 C46.91523437 36.7528125 47.83046875 37.505625 48.7734375 38.28125 C67.43593834 53.13603657 88.29960634 63.82017447 111 71 C111.96550781 71.30679688 112.93101563 71.61359375 113.92578125 71.9296875 C124.3362131 74.85244261 135.28918997 75.72989505 146 77 C146 77.33 146 77.66 146 78 C132.47 78 118.94 78 105 78 C105 77.01 105 76.02 105 75 C90.15 75 75.3 75 60 75 C60 70.05 60 65.1 60 60 C55.05 60 50.1 60 45 60 C45 55.05 45 50.1 45 45 C40.05 45 35.1 45 30 45 C30 40.05 30 35.1 30 30 C25.05 30 20.1 30 15 30 C15 25.05 15 20.1 15 15 C10.05 15 5.1 15 0 15 C0 10.05 0 5.1 0 0 Z " fill="#F1F3F1" transform="translate(15,270)"/>
<path d="M0 0 C4.95 0 9.9 0 15 0 C15 4.95 15 9.9 15 15 C19.95 15 24.9 15 30 15 C30 19.95 30 24.9 30 30 C34.95 30 39.9 30 45 30 C45 34.95 45 39.9 45 45 C49.95 45 54.9 45 60 45 C60 49.95 60 54.9 60 60 C64.95 60 69.9 60 75 60 C75 74.85 75 89.7 75 105 C75.99 105 76.98 105 78 105 C78 117.87 78 130.74 78 144 C77.67 144 77.34 144 77 144 C76.85304688 142.72769531 76.70609375 141.45539063 76.5546875 140.14453125 C72.05094765 103.80064142 57.48932846 68.97861649 32.10546875 42.22265625 C30.42468144 40.44831863 28.88253449 38.66822495 27.375 36.75 C20.49399262 28.78251777 10.80631592 20.8621365 1.625 15.65234375 C0 14 0 14 -0.390625 10.64453125 C-0.26041667 7.09635417 -0.13020833 3.54817708 0 0 Z " fill="#F2F4F1" transform="translate(270,15)"/>
<path d="M0 0 C4.95 0 9.9 0 15 0 C15 4.95 15 9.9 15 15 C19.95 15 24.9 15 30 15 C30 10.05 30 5.1 30 0 C34.95 0 39.9 0 45 0 C45 4.95 45 9.9 45 15 C49.95 15 54.9 15 60 15 C60 10.05 60 5.1 60 0 C64.95 0 69.9 0 75 0 C75 4.95 75 9.9 75 15 C89.85 15 104.7 15 120 15 C120 15.99 120 16.98 120 18 C80.4 18 40.8 18 0 18 C0 12.06 0 6.12 0 0 Z " fill="#FFFFFF" transform="translate(0,330)"/>
<path d="M0 0 C5.94 0 11.88 0 18 0 C18 39.6 18 79.2 18 120 C17.01 120 16.02 120 15 120 C15 105.15 15 90.3 15 75 C10.05 75 5.1 75 0 75 C0 70.05 0 65.1 0 60 C4.95 60 9.9 60 15 60 C15 55.05 15 50.1 15 45 C10.05 45 5.1 45 0 45 C0 40.05 0 35.1 0 30 C4.95 30 9.9 30 15 30 C15 25.05 15 20.1 15 15 C10.05 15 5.1 15 0 15 C0 10.05 0 5.1 0 0 Z " fill="#FFFFFF" transform="translate(330,0)"/>
<path d="M0 0 C4.95 0 9.9 0 15 0 C16.32379155 11.31240049 16.32379155 11.31240049 12.796875 15.80859375 C9.93795346 18.31210292 6.99211566 20.65834427 4 23 C-1.06397605 28.06397605 -5.30913909 33.90868684 -9.62524414 39.60864258 C-11.33199054 41.86063235 -12.9990765 43.9990765 -15 46 C-17.60267662 45.98245387 -20.0439635 45.86260542 -22.625 45.625 C-25.05875 45.41875 -27.4925 45.2125 -30 45 C-30 40.05 -30 35.1 -30 30 C-25.05 30 -20.1 30 -15 30 C-15 25.05 -15 20.1 -15 15 C-10.05 15 -5.1 15 0 15 C0 10.05 0 5.1 0 0 Z " fill="#EDEFED" transform="translate(45,30)"/>
<path d="M0 0 C3.96 0 7.92 0 12 0 C13.05571473 4.2228589 13.08369421 4.46902477 11.375 8.0625 C5.1976757 22.68288001 2.91501304 38.35294224 1 54 C0.67 54 0.34 54 0 54 C0 36.18 0 18.36 0 0 Z " fill="#EDF0ED" transform="translate(0,105)"/>
<path d="M0 0 C17.82 0 35.64 0 54 0 C54 0.33 54 0.66 54 1 C53.35675781 1.10022461 52.71351563 1.20044922 52.05078125 1.30371094 C29.09385674 4.81776034 29.09385674 4.81776034 6.89453125 11.484375 C5 12 5 12 0 12 C0 8.04 0 4.08 0 0 Z " fill="#EDEFED" transform="translate(105,0)"/>
<path d="M0 0 C0 3.3 0 6.6 0 10 C-4.95 10 -9.9 10 -15 10 C-15 14.95 -15 19.9 -15 25 C-19.95 25 -24.9 25 -30 25 C-30.37211056 16.44145715 -30.37211056 16.44145715 -28.71484375 14.4753418 C-26.94801634 12.95527659 -25.39259267 12.0786916 -23.26953125 11.1328125 C-22.55224854 10.80667969 -21.83496582 10.48054688 -21.09594727 10.14453125 C-20.34240967 9.80808594 -19.58887207 9.47164063 -18.8125 9.125 C-13.63386284 6.76260434 -5.26291542 0 0 0 Z " fill="#FBFEFB" transform="translate(270,320)"/>
<path d="M0 0 C5.17338173 -0.24260472 8.88152037 0.42025018 13.6875 2.3125 C27.54958411 7.46003123 41.3811775 9.26647669 56 11 C56 11.33 56 11.66 56 12 C42.47 12 28.94 12 15 12 C15 11.01 15 10.02 15 9 C10.05 9 5.1 9 0 9 C0 6.03 0 3.06 0 0 Z " fill="#F1F7F1" transform="translate(105,336)"/>
<path d="M0 0 C4.95 0 9.9 0 15 0 C15 4.95 15 9.9 15 15 C10.05 15 5.1 15 0 15 C0 10.05 0 5.1 0 0 Z " fill="#FFFFFF" transform="translate(330,330)"/>
<path d="M0 0 C4.95 0 9.9 0 15 0 C15 4.95 15 9.9 15 15 C10.05 15 5.1 15 0 15 C0 10.05 0 5.1 0 0 Z " fill="#FFFFFF" transform="translate(300,330)"/>
<path d="M0 0 C4.95 0 9.9 0 15 0 C15 4.95 15 9.9 15 15 C10.05 15 5.1 15 0 15 C0 10.05 0 5.1 0 0 Z " fill="#FFFFFF" transform="translate(270,330)"/>
<path d="M0 0 C4.95 0 9.9 0 15 0 C15 4.95 15 9.9 15 15 C10.05 15 5.1 15 0 15 C0 10.05 0 5.1 0 0 Z " fill="#EEEFEE" transform="translate(255,330)"/>
<path d="M0 0 C4.95 0 9.9 0 15 0 C15 4.95 15 9.9 15 15 C10.05 15 5.1 15 0 15 C0 10.05 0 5.1 0 0 Z " fill="#EEEFEE" transform="translate(75,330)"/>
<path d="M0 0 C4.95 0 9.9 0 15 0 C15 4.95 15 9.9 15 15 C10.05 15 5.1 15 0 15 C0 10.05 0 5.1 0 0 Z " fill="#EEEFEE" transform="translate(45,330)"/>
<path d="M0 0 C4.95 0 9.9 0 15 0 C15 4.95 15 9.9 15 15 C10.05 15 5.1 15 0 15 C0 10.05 0 5.1 0 0 Z " fill="#FFFFFF" transform="translate(30,330)"/>
<path d="M0 0 C4.95 0 9.9 0 15 0 C15 4.95 15 9.9 15 15 C10.05 15 5.1 15 0 15 C0 10.05 0 5.1 0 0 Z " fill="#EEEFEE" transform="translate(15,330)"/>
<path d="M0 0 C4.95 0 9.9 0 15 0 C15 4.95 15 9.9 15 15 C10.05 15 5.1 15 0 15 C0 10.05 0 5.1 0 0 Z " fill="#EEEFEE" transform="translate(330,315)"/>
<path d="M0 0 C4.95 0 9.9 0 15 0 C15 4.95 15 9.9 15 15 C10.05 15 5.1 15 0 15 C0 10.05 0 5.1 0 0 Z " fill="#FFFFFF" transform="translate(315,315)"/>
<path d="M0 0 C4.95 0 9.9 0 15 0 C15 4.95 15 9.9 15 15 C10.05 15 5.1 15 0 15 C0 10.05 0 5.1 0 0 Z " fill="#FFFFFF" transform="translate(285,315)"/>
<path d="M0 0 C4.95 0 9.9 0 15 0 C15 4.95 15 9.9 15 15 C10.05 15 5.1 15 0 15 C0 10.05 0 5.1 0 0 Z " fill="#FFFFFF" transform="translate(45,315)"/>
<path d="M0 0 C4.95 0 9.9 0 15 0 C15 4.95 15 9.9 15 15 C10.05 15 5.1 15 0 15 C0 10.05 0 5.1 0 0 Z " fill="#EEEFEE" transform="translate(30,315)"/>
<path d="M0 0 C4.95 0 9.9 0 15 0 C15 4.95 15 9.9 15 15 C10.05 15 5.1 15 0 15 C0 10.05 0 5.1 0 0 Z " fill="#FFFFFF" transform="translate(15,315)"/>
<path d="M0 0 C4.95 0 9.9 0 15 0 C15 4.95 15 9.9 15 15 C10.05 15 5.1 15 0 15 C0 10.05 0 5.1 0 0 Z " fill="#EEEFEE" transform="translate(0,315)"/>
<path d="M0 0 C4.95 0 9.9 0 15 0 C15 4.95 15 9.9 15 15 C10.05 15 5.1 15 0 15 C0 10.05 0 5.1 0 0 Z " fill="#FFFFFF" transform="translate(330,300)"/>
<path d="M0 0 C4.95 0 9.9 0 15 0 C15 4.95 15 9.9 15 15 C10.05 15 5.1 15 0 15 C0 10.05 0 5.1 0 0 Z " fill="#FFFFFF" transform="translate(300,300)"/>
<path d="M0 0 C4.95 0 9.9 0 15 0 C15 4.95 15 9.9 15 15 C10.05 15 5.1 15 0 15 C0 10.05 0 5.1 0 0 Z " fill="#FFFFFF" transform="translate(30,300)"/>
<path d="M0 0 C4.95 0 9.9 0 15 0 C15 4.95 15 9.9 15 15 C10.05 15 5.1 15 0 15 C0 10.05 0 5.1 0 0 Z " fill="#EEEFEE" transform="translate(15,300)"/>
<path d="M0 0 C4.95 0 9.9 0 15 0 C15 4.95 15 9.9 15 15 C10.05 15 5.1 15 0 15 C0 10.05 0 5.1 0 0 Z " fill="#FFFFFF" transform="translate(0,300)"/>
<path d="M0 0 C4.95 0 9.9 0 15 0 C15 4.95 15 9.9 15 15 C10.05 15 5.1 15 0 15 C0 10.05 0 5.1 0 0 Z " fill="#FFFFFF" transform="translate(315,285)"/>
<path d="M0 0 C4.95 0 9.9 0 15 0 C15 4.95 15 9.9 15 15 C10.05 15 5.1 15 0 15 C0 10.05 0 5.1 0 0 Z " fill="#FFFFFF" transform="translate(15,285)"/>
<path d="M0 0 C4.95 0 9.9 0 15 0 C15 4.95 15 9.9 15 15 C10.05 15 5.1 15 0 15 C0 10.05 0 5.1 0 0 Z " fill="#EEEFEE" transform="translate(0,285)"/>
<path d="M0 0 C4.95 0 9.9 0 15 0 C15 4.95 15 9.9 15 15 C10.05 15 5.1 15 0 15 C0 10.05 0 5.1 0 0 Z " fill="#FFFFFF" transform="translate(330,270)"/>
<path d="M0 0 C4.95 0 9.9 0 15 0 C15 4.95 15 9.9 15 15 C10.05 15 5.1 15 0 15 C0 10.05 0 5.1 0 0 Z " fill="#FFFFFF" transform="translate(0,270)"/>
<path d="M0 0 C4.95 0 9.9 0 15 0 C15 4.95 15 9.9 15 15 C10.05 15 5.1 15 0 15 C0 10.05 0 5.1 0 0 Z " fill="#EEEFEE" transform="translate(0,255)"/>
<path d="M0 0 C4.95 0 9.9 0 15 0 C15 4.95 15 9.9 15 15 C10.05 15 5.1 15 0 15 C0 10.05 0 5.1 0 0 Z " fill="#EEEFEE" transform="translate(330,75)"/>
<path d="M0 0 C4.95 0 9.9 0 15 0 C15 4.95 15 9.9 15 15 C10.05 15 5.1 15 0 15 C0 10.05 0 5.1 0 0 Z " fill="#EEEFEE" transform="translate(0,75)"/>
<path d="M0 0 C4.95 0 9.9 0 15 0 C15 4.95 15 9.9 15 15 C10.05 15 5.1 15 0 15 C0 10.05 0 5.1 0 0 Z " fill="#FFFFFF" transform="translate(0,60)"/>
<path d="M0 0 C4.95 0 9.9 0 15 0 C15 4.95 15 9.9 15 15 C10.05 15 5.1 15 0 15 C0 10.05 0 5.1 0 0 Z " fill="#EEEFEE" transform="translate(330,45)"/>
<path d="M0 0 C4.95 0 9.9 0 15 0 C15 4.95 15 9.9 15 15 C10.05 15 5.1 15 0 15 C0 10.05 0 5.1 0 0 Z " fill="#FFFFFF" transform="translate(315,45)"/>
<path d="M0 0 C4.95 0 9.9 0 15 0 C15 4.95 15 9.9 15 15 C10.05 15 5.1 15 0 15 C0 10.05 0 5.1 0 0 Z " fill="#FFFFFF" transform="translate(15,45)"/>
<path d="M0 0 C4.95 0 9.9 0 15 0 C15 4.95 15 9.9 15 15 C10.05 15 5.1 15 0 15 C0 10.05 0 5.1 0 0 Z " fill="#EEEFEE" transform="translate(0,45)"/>
<path d="M0 0 C4.95 0 9.9 0 15 0 C15 4.95 15 9.9 15 15 C10.05 15 5.1 15 0 15 C0 10.05 0 5.1 0 0 Z " fill="#FFFFFF" transform="translate(330,30)"/>
<path d="M0 0 C4.95 0 9.9 0 15 0 C15 4.95 15 9.9 15 15 C10.05 15 5.1 15 0 15 C0 10.05 0 5.1 0 0 Z " fill="#EEEFEE" transform="translate(315,30)"/>
<path d="M0 0 C4.95 0 9.9 0 15 0 C15 4.95 15 9.9 15 15 C10.05 15 5.1 15 0 15 C0 10.05 0 5.1 0 0 Z " fill="#FFFFFF" transform="translate(300,30)"/>
<path d="M0 0 C4.95 0 9.9 0 15 0 C15 4.95 15 9.9 15 15 C10.05 15 5.1 15 0 15 C0 10.05 0 5.1 0 0 Z " fill="#FFFFFF" transform="translate(30,30)"/>
<path d="M0 0 C4.95 0 9.9 0 15 0 C15 4.95 15 9.9 15 15 C10.05 15 5.1 15 0 15 C0 10.05 0 5.1 0 0 Z " fill="#EEEFEE" transform="translate(15,30)"/>
<path d="M0 0 C4.95 0 9.9 0 15 0 C15 4.95 15 9.9 15 15 C10.05 15 5.1 15 0 15 C0 10.05 0 5.1 0 0 Z " fill="#FFFFFF" transform="translate(0,30)"/>
<path d="M0 0 C4.95 0 9.9 0 15 0 C15 4.95 15 9.9 15 15 C10.05 15 5.1 15 0 15 C0 10.05 0 5.1 0 0 Z " fill="#EEEFEE" transform="translate(330,15)"/>
<path d="M0 0 C4.95 0 9.9 0 15 0 C15 4.95 15 9.9 15 15 C10.05 15 5.1 15 0 15 C0 10.05 0 5.1 0 0 Z " fill="#FFFFFF" transform="translate(315,15)"/>
<path d="M0 0 C4.95 0 9.9 0 15 0 C15 4.95 15 9.9 15 15 C10.05 15 5.1 15 0 15 C0 10.05 0 5.1 0 0 Z " fill="#EEEFEE" transform="translate(300,15)"/>
<path d="M0 0 C4.95 0 9.9 0 15 0 C15 4.95 15 9.9 15 15 C10.05 15 5.1 15 0 15 C0 10.05 0 5.1 0 0 Z " fill="#FFFFFF" transform="translate(285,15)"/>
<path d="M0 0 C4.95 0 9.9 0 15 0 C15 4.95 15 9.9 15 15 C10.05 15 5.1 15 0 15 C0 10.05 0 5.1 0 0 Z " fill="#EEEFEE" transform="translate(60,15)"/>
<path d="M0 0 C4.95 0 9.9 0 15 0 C15 4.95 15 9.9 15 15 C10.05 15 5.1 15 0 15 C0 10.05 0 5.1 0 0 Z " fill="#FFFFFF" transform="translate(45,15)"/>
<path d="M0 0 C4.95 0 9.9 0 15 0 C15 4.95 15 9.9 15 15 C10.05 15 5.1 15 0 15 C0 10.05 0 5.1 0 0 Z " fill="#EEEFEE" transform="translate(30,15)"/>
<path d="M0 0 C4.95 0 9.9 0 15 0 C15 4.95 15 9.9 15 15 C10.05 15 5.1 15 0 15 C0 10.05 0 5.1 0 0 Z " fill="#FFFFFF" transform="translate(15,15)"/>
<path d="M0 0 C4.95 0 9.9 0 15 0 C15 4.95 15 9.9 15 15 C10.05 15 5.1 15 0 15 C0 10.05 0 5.1 0 0 Z " fill="#EEEFEE" transform="translate(0,15)"/>
<path d="M0 0 C4.95 0 9.9 0 15 0 C15 4.95 15 9.9 15 15 C10.05 15 5.1 15 0 15 C0 10.05 0 5.1 0 0 Z " fill="#EEEFEE" transform="translate(315,0)"/>
<path d="M0 0 C4.95 0 9.9 0 15 0 C15 4.95 15 9.9 15 15 C10.05 15 5.1 15 0 15 C0 10.05 0 5.1 0 0 Z " fill="#FFFFFF" transform="translate(300,0)"/>
<path d="M0 0 C4.95 0 9.9 0 15 0 C15 4.95 15 9.9 15 15 C10.05 15 5.1 15 0 15 C0 10.05 0 5.1 0 0 Z " fill="#EEEFEE" transform="translate(285,0)"/>
<path d="M0 0 C4.95 0 9.9 0 15 0 C15 4.95 15 9.9 15 15 C10.05 15 5.1 15 0 15 C0 10.05 0 5.1 0 0 Z " fill="#FFFFFF" transform="translate(270,0)"/>
<path d="M0 0 C4.95 0 9.9 0 15 0 C15 4.95 15 9.9 15 15 C10.05 15 5.1 15 0 15 C0 10.05 0 5.1 0 0 Z " fill="#EEEFEE" transform="translate(255,0)"/>
<path d="M0 0 C4.95 0 9.9 0 15 0 C15 4.95 15 9.9 15 15 C10.05 15 5.1 15 0 15 C0 10.05 0 5.1 0 0 Z " fill="#EEEFEE" transform="translate(75,0)"/>
<path d="M0 0 C4.95 0 9.9 0 15 0 C15 4.95 15 9.9 15 15 C10.05 15 5.1 15 0 15 C0 10.05 0 5.1 0 0 Z " fill="#FFFFFF" transform="translate(60,0)"/>
<path d="M0 0 C4.95 0 9.9 0 15 0 C15 4.95 15 9.9 15 15 C10.05 15 5.1 15 0 15 C0 10.05 0 5.1 0 0 Z " fill="#EEEFEE" transform="translate(45,0)"/>
<path d="M0 0 C4.95 0 9.9 0 15 0 C15 4.95 15 9.9 15 15 C10.05 15 5.1 15 0 15 C0 10.05 0 5.1 0 0 Z " fill="#FFFFFF" transform="translate(30,0)"/>
<path d="M0 0 C4.95 0 9.9 0 15 0 C15 4.95 15 9.9 15 15 C10.05 15 5.1 15 0 15 C0 10.05 0 5.1 0 0 Z " fill="#FFFFFF" transform="translate(0,0)"/>
<path d="M0 0 C2.2269766 3.3404649 4.07122529 6.82736587 5.9375 10.375 C6.63282648 11.69599132 7.32941745 13.01631791 8.02734375 14.3359375 C8.33406006 14.91907715 8.64077637 15.5022168 8.95678711 16.10302734 C10.24094279 18.43812906 11.6289141 20.71485684 13 23 C8.38 23 3.76 23 -1 23 C-1.02687864 19.54161528 -1.04677983 16.08343775 -1.0625 12.625 C-1.07087891 11.64015625 -1.07925781 10.6553125 -1.08789062 9.640625 C-1.09111328 8.69960937 -1.09433594 7.75859375 -1.09765625 6.7890625 C-1.10289307 5.91975098 -1.10812988 5.05043945 -1.11352539 4.15478516 C-1 2 -1 2 0 0 Z " fill="#FBFDFA" transform="translate(16,247)"/>
<path d="M0 0 C12.87 0 25.74 0 39 0 C39 0.33 39 0.66 39 1 C38.33057373 1.10546143 37.66114746 1.21092285 36.97143555 1.31958008 C33.87575905 1.81095307 30.78166152 2.31167927 27.6875 2.8125 C26.1087207 3.0609668 26.1087207 3.0609668 24.49804688 3.31445312 C18.33966974 4.31874232 12.41943466 5.60005653 6.44848633 7.4206543 C3.88250744 8.02780036 1.62703086 8.10238233 -1 8 C-0.67 5.36 -0.34 2.72 0 0 Z " fill="#F9FDF9" transform="translate(120,0)"/>
<path d="M0 0 C-0.47428682 4.17372398 -1.26608669 8.07253146 -2.375 12.125 C-4.74559249 21.25703611 -5.77532687 30.65940622 -7 40 C-7.33 40 -7.66 40 -8 40 C-8 27.13 -8 14.26 -8 1 C-1 0 -1 0 0 0 Z " fill="#FAFDFA" transform="translate(8,119)"/>
<path d="M0 0 C13.53 0 27.06 0 41 0 C41.495 2.97 41.495 2.97 42 6 C42.99 6.66 43.98 7.32 45 8 C40.69404327 7.4603646 36.61023795 6.694326 32.40405273 5.59082031 C21.71527799 2.80770053 10.99362358 1.79647516 0 1 C0 0.67 0 0.34 0 0 Z " fill="#F3FAF2" transform="translate(184,0)"/>
<path d="M0 0 C0.33 0 0.66 0 1 0 C1.10546143 0.70495605 1.21092285 1.40991211 1.31958008 2.13623047 C1.80975366 5.38366368 2.31105585 8.62928878 2.8125 11.875 C2.97814453 12.98359375 3.14378906 14.0921875 3.31445312 15.234375 C4.25641856 21.27717216 5.4285033 26.99717714 7.4206543 32.78564453 C8.06926022 35.26472405 8.09797203 37.44823559 8 40 C7.34 39.01 6.68 38.02 6 37 C4.02 36.67 2.04 36.34 0 36 C0 24.12 0 12.24 0 0 Z " fill="#FBFDFB" transform="translate(0,189)"/>
<path d="M0 0 C2.97 0 5.94 0 9 0 C9 4.95 9 9.9 9 15 C7.35 14.67 5.7 14.34 4 14 C2.3125 10.625 2.3125 10.625 1 7 C0.34 6.01 -0.32 5.02 -1 4 C-0.67 2.68 -0.34 1.36 0 0 Z " fill="#EDEFED" transform="translate(336,105)"/>
<path d="M0 0 C3.39374577 1.13124859 4.32426265 2.54530911 6.49609375 5.26171875 C11.30159969 10.81613471 17.43322018 15.1795899 23.3125 19.51953125 C23.869375 20.00808594 24.42625 20.49664062 25 21 C25 21.66 25 22.32 25 23 C21.7 23 18.4 23 15 23 C14.979375 21.80375 14.95875 20.6075 14.9375 19.375 C14.48330086 15.77339271 13.54816613 14.02037758 10.875 11.5625 C7.28587184 8.82049526 4.46571403 8.18227404 0 8 C0 5.36 0 2.72 0 0 Z " fill="#F9FDF9" transform="translate(45,292)"/>
<path d="M0 0 C2.64 0 5.28 0 8 0 C8.08636719 0.59167969 8.17273438 1.18335938 8.26171875 1.79296875 C8.98504629 5.86085667 9.70513325 8.58371753 12.125 12 C15.90677604 14.63080072 18.43682192 14.767974 23 15 C23 18.3 23 21.6 23 25 C19.37914417 23.79304806 18.6530432 22.56707961 16.375 19.5625 C9.07206278 9.87309205 9.07206278 9.87309205 0 2 C0 1.34 0 0.68 0 0 Z " fill="#F9FDF9" transform="translate(292,45)"/>
<path d="M0 0 C2.31 0 4.62 0 7 0 C7.33 0.66 7.66 1.32 8 2 C10.30965848 3.05352843 12.6429774 4.05719096 15 5 C15 6.32 15 7.64 15 9 C10.05 9 5.1 9 0 9 C0 6.03 0 3.06 0 0 Z " fill="#EDEEED" transform="translate(105,336)"/>
<path d="M0 0 C0 4.2650016 -2.44473414 6.50032379 -5 9.6875 C-5.71542969 10.59725586 -5.71542969 10.59725586 -6.4453125 11.52539062 C-7.62376394 13.02202396 -8.81105188 14.51169173 -10 16 C-10.66 15.67 -11.32 15.34 -12 15 C-12 10.71 -12 6.42 -12 2 C-7.75195312 1.65820312 -7.75195312 1.65820312 -3.50390625 1.31640625 C-1.06359221 1.26788532 -1.06359221 1.26788532 0 0 Z " fill="#FBFDFA" transform="translate(42,58)"/>
<path d="M0 0 C3.63 0 7.26 0 11 0 C9.6618467 4.0144599 7.23686108 5.35766442 4 8 C3.01 9.485 3.01 9.485 2 11 C1.34 11 0.68 11 0 11 C0 7.37 0 3.74 0 0 Z " fill="#F9FDF8" transform="translate(45,45)"/>
<path d="M0 0 C3.9252025 3.70090521 6.94580156 7.54959656 10 12 C6.7 12 3.4 12 0 12 C0 8.04 0 4.08 0 0 Z " fill="#F9FCF8" transform="translate(30,273)"/>
<path d="M0 0 C3.96 0 7.92 0 12 0 C12 3.3 12 6.6 12 10 C7.63226112 6.79699149 3.84676125 3.84676125 0 0 Z " fill="#F9FCF8" transform="translate(273,30)"/>
<path d="M0 0 C-3.18836366 2.84394166 -5.18286254 3.36361896 -9.421875 3.29296875 C-10.95908203 3.2784668 -10.95908203 3.2784668 -12.52734375 3.26367188 C-13.59082031 3.23853516 -14.65429688 3.21339844 -15.75 3.1875 C-17.36841797 3.16719727 -17.36841797 3.16719727 -19.01953125 3.14648438 C-21.6801942 3.11116584 -24.33984296 3.06184199 -27 3 C-27 2.67 -27 2.34 -27 2 C-23.25163939 1.46688195 -19.50114226 0.95064909 -15.75 0.4375 C-14.68652344 0.28603516 -13.62304688 0.13457031 -12.52734375 -0.02148438 C-11.50253906 -0.16005859 -10.47773438 -0.29863281 -9.421875 -0.44140625 C-8.47924805 -0.57232666 -7.53662109 -0.70324707 -6.56542969 -0.83813477 C-4.09111735 -0.99425097 -2.34338377 -0.75460815 0 0 Z " fill="#E8F7E7" transform="translate(214,345)"/>
<path d="M0 0 C0.33 0 0.66 0 1 0 C1.11622939 3.74973906 1.1872595 7.49901464 1.25 11.25 C1.28351563 12.31347656 1.31703125 13.37695312 1.3515625 14.47265625 C1.36445313 15.49746094 1.37734375 16.52226562 1.390625 17.578125 C1.41157227 18.52075195 1.43251953 19.46337891 1.45410156 20.43457031 C0.87271731 23.71907875 -0.49259159 24.89169466 -3 27 C-2.68849701 23.99989351 -2.3758246 20.99991634 -2.0625 18 C-1.97548828 17.16082031 -1.88847656 16.32164062 -1.79882812 15.45703125 C-1.25871362 10.29593708 -0.66124678 5.14700198 0 0 Z " fill="#E7F6E6" transform="translate(347,187)"/>
<path d="M0 0 C1.32 0.33 2.64 0.66 4 1 C3.01 8.59 2.02 16.18 1 24 C0.67 24 0.34 24 0 24 C0 16.08 0 8.16 0 0 Z " fill="#EAF3EA" transform="translate(0,135)"/>
<path d="M0 0 C3.39604991 1.13201664 4.36318767 2.56745874 6.52734375 5.30078125 C9.045743 8.20662654 12.0226422 10.58036052 15 13 C12 13 12 13 9.75 11.0625 C6.45869867 8.594024 4.04818798 8.31750494 0 8 C0 5.36 0 2.72 0 0 Z " fill="#F2FBF1" transform="translate(45,292)"/>
<path d="M0 0 C2.64 0 5.28 0 8 0 C8.14695312 0.90492187 8.14695312 0.90492187 8.296875 1.828125 C9.20946904 6.70578282 9.87595723 9.83823388 14 13 C13.67 13.66 13.34 14.32 13 15 C12.31292969 14.22914062 11.62585938 13.45828125 10.91796875 12.6640625 C10.00798599 11.65088582 9.09782013 10.63787357 8.1875 9.625 C7.73568359 9.11710937 7.28386719 8.60921875 6.81835938 8.0859375 C4.64829248 5.67827204 2.71407209 3.80938139 0 2 C0 1.34 0 0.68 0 0 Z " fill="#F2FBF1" transform="translate(292,45)"/>
<path d="M0 0 C4.95 0 9.9 0 15 0 C15 0.99 15 1.98 15 3 C10.05 3 5.1 3 0 3 C0 2.01 0 1.02 0 0 Z " fill="#FFFFFF" transform="translate(315,345)"/>
<path d="M0 0 C4.95 0 9.9 0 15 0 C15 0.99 15 1.98 15 3 C10.05 3 5.1 3 0 3 C0 2.01 0 1.02 0 0 Z " fill="#EEEFEE" transform="translate(300,345)"/>
<path d="M0 0 C4.95 0 9.9 0 15 0 C15 0.99 15 1.98 15 3 C10.05 3 5.1 3 0 3 C0 2.01 0 1.02 0 0 Z " fill="#FFFFFF" transform="translate(285,345)"/>
<path d="M0 0 C4.95 0 9.9 0 15 0 C15 0.99 15 1.98 15 3 C10.05 3 5.1 3 0 3 C0 2.01 0 1.02 0 0 Z " fill="#FFFFFF" transform="translate(255,345)"/>
<path d="M0 0 C4.95 0 9.9 0 15 0 C15 0.99 15 1.98 15 3 C10.05 3 5.1 3 0 3 C0 2.01 0 1.02 0 0 Z " fill="#FFFFFF" transform="translate(225,345)"/>
<path d="M0 0 C4.95 0 9.9 0 15 0 C15 0.99 15 1.98 15 3 C10.05 3 5.1 3 0 3 C0 2.01 0 1.02 0 0 Z " fill="#FFFFFF" transform="translate(105,345)"/>
<path d="M0 0 C4.95 0 9.9 0 15 0 C15 0.99 15 1.98 15 3 C10.05 3 5.1 3 0 3 C0 2.01 0 1.02 0 0 Z " fill="#EEEFEE" transform="translate(90,345)"/>
<path d="M0 0 C4.95 0 9.9 0 15 0 C15 0.99 15 1.98 15 3 C10.05 3 5.1 3 0 3 C0 2.01 0 1.02 0 0 Z " fill="#FFFFFF" transform="translate(75,345)"/>
<path d="M0 0 C4.95 0 9.9 0 15 0 C15 0.99 15 1.98 15 3 C10.05 3 5.1 3 0 3 C0 2.01 0 1.02 0 0 Z " fill="#EEEFEE" transform="translate(60,345)"/>
<path d="M0 0 C4.95 0 9.9 0 15 0 C15 0.99 15 1.98 15 3 C10.05 3 5.1 3 0 3 C0 2.01 0 1.02 0 0 Z " fill="#EEEFEE" transform="translate(30,345)"/>
<path d="M0 0 C4.95 0 9.9 0 15 0 C15 0.99 15 1.98 15 3 C10.05 3 5.1 3 0 3 C0 2.01 0 1.02 0 0 Z " fill="#EEEFEE" transform="translate(0,345)"/>
<path d="M0 0 C0.99 0 1.98 0 3 0 C3 4.95 3 9.9 3 15 C2.01 15 1.02 15 0 15 C0 10.05 0 5.1 0 0 Z " fill="#FFFFFF" transform="translate(345,315)"/>
<path d="M0 0 C0.99 0 1.98 0 3 0 C3 4.95 3 9.9 3 15 C2.01 15 1.02 15 0 15 C0 10.05 0 5.1 0 0 Z " fill="#EEEFEE" transform="translate(345,300)"/>
<path d="M0 0 C0.99 0 1.98 0 3 0 C3 4.95 3 9.9 3 15 C2.01 15 1.02 15 0 15 C0 10.05 0 5.1 0 0 Z " fill="#FFFFFF" transform="translate(345,285)"/>
<path d="M0 0 C0.99 0 1.98 0 3 0 C3 4.95 3 9.9 3 15 C2.01 15 1.02 15 0 15 C0 10.05 0 5.1 0 0 Z " fill="#FFFFFF" transform="translate(345,255)"/>
<path d="M0 0 C0.99 0 1.98 0 3 0 C3 4.95 3 9.9 3 15 C2.01 15 1.02 15 0 15 C0 10.05 0 5.1 0 0 Z " fill="#FFFFFF" transform="translate(345,225)"/>
<path d="M0 0 C0.99 0 1.98 0 3 0 C3 4.95 3 9.9 3 15 C2.01 15 1.02 15 0 15 C0 10.05 0 5.1 0 0 Z " fill="#EEEFEE" transform="translate(345,120)"/>
<path d="M0 0 C0.99 0 1.98 0 3 0 C3 4.95 3 9.9 3 15 C2.01 15 1.02 15 0 15 C0 10.05 0 5.1 0 0 Z " fill="#FFFFFF" transform="translate(345,105)"/>
<path d="M0 0 C0.99 0 1.98 0 3 0 C3 4.95 3 9.9 3 15 C2.01 15 1.02 15 0 15 C0 10.05 0 5.1 0 0 Z " fill="#EEEFEE" transform="translate(345,90)"/>
<path d="M0 0 C0.99 0 1.98 0 3 0 C3 4.95 3 9.9 3 15 C2.01 15 1.02 15 0 15 C0 10.05 0 5.1 0 0 Z " fill="#FFFFFF" transform="translate(345,75)"/>
<path d="M0 0 C0.99 0 1.98 0 3 0 C3 4.95 3 9.9 3 15 C2.01 15 1.02 15 0 15 C0 10.05 0 5.1 0 0 Z " fill="#EEEFEE" transform="translate(345,60)"/>
<path d="M0 0 C0.99 0 1.98 0 3 0 C3 4.95 3 9.9 3 15 C2.01 15 1.02 15 0 15 C0 10.05 0 5.1 0 0 Z " fill="#EEEFEE" transform="translate(345,30)"/>
<path d="M0 0 C0.99 0 1.98 0 3 0 C3 4.95 3 9.9 3 15 C2.01 15 1.02 15 0 15 C0 10.05 0 5.1 0 0 Z " fill="#EEEFEE" transform="translate(345,0)"/>
<path d="M0 0 C7.92 0 15.84 0 24 0 C24 0.33 24 0.66 24 1 C21.31306278 1.33851178 18.62559711 1.670936 15.9375 2 C14.80924805 2.14308594 14.80924805 2.14308594 13.65820312 2.2890625 C9.06578683 2.84571902 4.6257865 3.09829028 0 3 C0 2.01 0 1.02 0 0 Z " fill="#E9F2E8" transform="translate(135,0)"/>
<path d="M0 0 C1.53445094 3.06890187 0.54984289 5.70094266 0 9 C-1.98 9 -3.96 9 -6 9 C-6.66 10.32 -7.32 11.64 -8 13 C-8.66 12.67 -9.32 12.34 -10 12 C-6.7 8.04 -3.4 4.08 0 0 Z " fill="#F7FBF6" transform="translate(315,276)"/>
<path d="M0 0 C0.33 0 0.66 0 1 0 C1.36314325 2.74908445 1.71580841 5.49883451 2.0625 8.25 C2.16626953 9.02730469 2.27003906 9.80460938 2.37695312 10.60546875 C2.47041016 11.35957031 2.56386719 12.11367187 2.66015625 12.890625 C2.79369507 13.92751465 2.79369507 13.92751465 2.92993164 14.98535156 C3.00606235 17.17430848 2.6249336 18.91005813 2 21 C1.34 21 0.68 21 0 21 C0 14.07 0 7.14 0 0 Z " fill="#E4F2E3" transform="translate(0,189)"/>
<path d="M0 0 C1.65 0 3.3 0 5 0 C4.5020163 3.73487777 4.12508244 5.81237635 2 9 C1.34 9 0.68 9 0 9 C0 6.03 0 3.06 0 0 Z " fill="#EAF1E9" transform="translate(15,90)"/>
<path d="M0 0 C1.45792884 -0.05399736 2.91642712 -0.09279177 4.375 -0.125 C5.18710938 -0.14820313 5.99921875 -0.17140625 6.8359375 -0.1953125 C9 0 9 0 11 2 C9.73160474 2.50615298 8.46016898 3.00469099 7.1875 3.5 C6.12595703 3.91765625 6.12595703 3.91765625 5.04296875 4.34375 C3 5 3 5 0 5 C0 3.35 0 1.7 0 0 Z " fill="#E2EFE1" transform="translate(90,15)"/>
<path d="M0 0 C-0.99 0.66 -1.98 1.32 -3 2 C-3.33 2.99 -3.66 3.98 -4 5 C-7.3 5 -10.6 5 -14 5 C-9.80423002 0.80423002 -5.88703086 -0.34629593 0 0 Z " fill="#F8FCF7" transform="translate(229,340)"/>
<path d="M0 0 C0.33 0 0.66 0 1 0 C1 3.3 1 6.6 1 10 C0.01 10.33 -0.98 10.66 -2 11 C-2.66 11.66 -3.32 12.32 -4 13 C-3.40895235 8.15340923 -2.02055843 4.39251833 0 0 Z " fill="#F8FCF7" transform="translate(344,215)"/>
<path d="M0 0 C1.91562291 2.87343437 2.29210899 3.77503541 2.6328125 7.01171875 C2.71660156 7.76904297 2.80039062 8.52636719 2.88671875 9.30664062 C2.96535156 10.09232422 3.04398438 10.87800781 3.125 11.6875 C3.21136719 12.48478516 3.29773438 13.28207031 3.38671875 14.10351562 C3.59848472 16.06823326 3.80021473 18.03402796 4 20 C3.34 20 2.68 20 2 20 C1.86722656 19.15695313 1.73445313 18.31390625 1.59765625 17.4453125 C1.42105469 16.34960938 1.24445312 15.25390625 1.0625 14.125 C0.88847656 13.03445312 0.71445312 11.94390625 0.53515625 10.8203125 C0.14448841 8.06178454 0.14448841 8.06178454 -1 6 C-0.71887936 3.99199544 -0.38932033 1.98985949 0 0 Z " fill="#19C115" transform="translate(16,187)"/>
<path d="M0 0 C0.66 0 1.32 0 2 0 C2 1.98 2 3.96 2 6 C0.02 6 -1.96 6 -4 6 C-2.7260411 3.96166576 -1.38938077 1.96147874 0 0 Z " fill="#FCFEFC" transform="translate(283,309)"/>
<path d="M0 0 C3.36591427 2.72478774 4.44226276 6.06856792 6 10 C5.01 9.67 4.02 9.34 3 9 C1.8125 5.9375 1.8125 5.9375 1 3 C0.34 3 -0.32 3 -1 3 C-0.67 2.01 -0.34 1.02 0 0 Z " fill="#1EC21A" transform="translate(273,66)"/>
<path d="M0 0 C2 3 2 3 3 6 C2.67 6.66 2.34 7.32 2 8 C1.01 8 0.02 8 -1 8 C-1.125 2.25 -1.125 2.25 0 0 Z " fill="#DCEEDB" transform="translate(16,247)"/>
<path d="M0 0 C0.94875 0.04125 1.8975 0.0825 2.875 0.125 C2.875 1.115 2.875 2.105 2.875 3.125 C-0.74826739 4.3327558 -1.76646369 3.66811128 -5.125 2.125 C-3.125 0.125 -3.125 0.125 0 0 Z " fill="#DCEEDB" transform="translate(252.125,14.875)"/>
</svg>
